<?xml version="1.0" encoding="UTF-8"?>
<!DOCTYPE svg PUBLIC "-//W3C//DTD SVG 1.1//EN" "http://www.w3.org/Graphics/SVG/1.1/DTD/svg11.dtd">
<!-- Creator: CorelDRAW 2021 (64-Bit) -->
<svg xmlns="http://www.w3.org/2000/svg" xml:space="preserve" width="213.511mm" height="176.814mm" version="1.1" style="shape-rendering:geometricPrecision; text-rendering:geometricPrecision; image-rendering:optimizeQuality; fill-rule:evenodd; clip-rule:evenodd"
viewBox="0 0 163148.48 135107.18"
 xmlns:xlink="http://www.w3.org/1999/xlink"
 xmlns:xodm="http://www.corel.com/coreldraw/odm/2003">
 <defs>
  <style type="text/css">
   <![CDATA[
    .fil1 {fill:none}
    .fil2 {fill:#F3F5FA}
    .fil0 {fill:#D0DCF0;fill-rule:nonzero}
   ]]>
  </style>
   <clipPath id="id0">
    <path d="M81574.24 0c45052.26,0 81574.24,30244.79 81574.24,67553.59 0,37308.8 -36521.98,67553.59 -81574.24,67553.59 -45052.18,0 -81574.24,-30244.79 -81574.24,-67553.59 0,-37308.8 36522.06,-67553.59 81574.24,-67553.59z"/>
   </clipPath>
    <clipPath id="id1">
     <path d="M148108.26 106647.84c-3848.42,4329.52 -8160.21,8280.03 -12867.82,11779.1 -14343.79,10385.41 -33116.44,16680.25 -53666.21,16680.25 -21506.45,0 -41065.07,-6895.59 -55638.79,-18158.29 -3224.98,-2540.25 -6250.52,-5297.2 -9053.55,-8246.79 -10585.23,-11393.67 -16881.9,-25661.44 -16881.9,-41148.51 0,-37308.8 36522.06,-67553.59 81574.24,-67553.59 45052.26,0 81574.24,30244.79 81574.24,67553.59 0,14568.68 -5569.07,28060.09 -15040.22,39094.24z"/>
    </clipPath>
     <clipPath id="id2">
      <path d="M148108.26 106647.84c-3848.42,4329.52 -8160.21,8280.03 -12867.82,11779.1 -14343.79,10385.41 -33116.44,16680.25 -53666.21,16680.25 -9928.62,0 -19441.48,-1470.63 -28241.04,-4161.18l0 -126786.04c8800.01,-2689.4 18312.95,-4159.96 28241.04,-4159.96 45052.26,0 81574.24,30244.79 81574.24,67553.59 0,14568.68 -5569.07,28060.09 -15040.22,39094.24z"/>
     </clipPath>
     <clipPath id="id3">
      <path d="M148108.26 106647.84c-3848.42,4329.52 -8160.21,8280.03 -12867.82,11779.1 -14343.79,10385.41 -33116.44,16680.25 -53666.21,16680.25 -21506.45,0 -41065.07,-6895.59 -55638.79,-18158.29 -3224.98,-2540.25 -6250.52,-5297.2 -9053.55,-8246.79 -10585.23,-11393.67 -16881.9,-25661.44 -16881.9,-41148.51 0,-37308.8 36522.06,-67553.59 81574.24,-67553.59 45052.26,0 81574.24,30244.79 81574.24,67553.59 0,14568.68 -5569.07,28060.09 -15040.22,39094.24z"/>
     </clipPath>
     <clipPath id="id4">
      <path d="M99536.76 133462.71c-5779.36,1075.88 -11790.63,1644.47 -17962.52,1644.47 -21506.45,0 -41065.07,-6895.59 -55638.79,-18158.29 -3224.98,-2540.25 -6250.52,-5297.2 -9053.55,-8246.79 -7375.15,-7938.46 -12667.46,-17272.45 -15199.69,-27441.69l0 -27415.94c4070.4,-16349.23 15274.72,-30539.52 30799.01,-40242.49l67055.54 0 0 119860.73z"/>
     </clipPath>
     <clipPath id="id5">
      <path d="M148108.26 106647.84c-3848.42,4329.52 -8160.21,8280.03 -12867.82,11779.1 -14343.79,10385.41 -33116.44,16680.25 -53666.21,16680.25 -21506.45,0 -41065.07,-6895.59 -55638.79,-18158.29 -3224.98,-2540.25 -6250.52,-5297.2 -9053.55,-8246.79 -10585.23,-11393.67 -16881.9,-25661.44 -16881.9,-41148.51 0,-37308.8 36522.06,-67553.59 81574.24,-67553.59 45052.26,0 81574.24,30244.79 81574.24,67553.59 0,14568.68 -5569.07,28060.09 -15040.22,39094.24z"/>
     </clipPath>
    <clipPath id="id6">
     <path d="M81574.24 0c45052.26,0 81574.24,30244.79 81574.24,67553.59 0,37308.8 -36521.98,67553.59 -81574.24,67553.59 -45052.18,0 -81574.24,-30244.79 -81574.24,-67553.59 0,-37308.8 36522.06,-67553.59 81574.24,-67553.59z"/>
    </clipPath>
    <clipPath id="id7">
    </clipPath>
    <clipPath id="id8">
     <path d="M81574.24 0c45052.26,0 81574.24,30244.79 81574.24,67553.59 0,37308.8 -36521.98,67553.59 -81574.24,67553.59 -45052.18,0 -81574.24,-30244.79 -81574.24,-67553.59 0,-37308.8 36522.06,-67553.59 81574.24,-67553.59z"/>
    </clipPath>
 </defs>
 <g id="Layer_x0020_1">
  <metadata id="CorelCorpID_0Corel-Layer"/>
  <g>
  </g>
  <g style="clip-path:url(#id0)">
   <g>
    <path class="fil0" d="M145776.62 109063c5082.18,-4848.05 9889.42,-12394.52 12652.18,-18943.89 325.59,-883.25 683.89,-2854.61 727.29,-4013.47 570.04,-15674.51 -14980.08,-28691.49 -30658.64,-29169.06 -13291.22,-403.84 -26465.37,6158.59 -39522.46,3633.4 -16939.44,-3277.01 -27938.83,-20620.52 -44418.42,-25725.7 -17607.67,-5453.77 -38094.24,121.04 -42618.68,18222.1 -4342.05,15928.43 -1920.16,22994.12 -5588.56,41057.35 -731.26,3615.21 -18430.01,22643.84 -16561.74,25826.1 1225.73,2088.57 25651.43,-13910.69 27885.34,-12974.87 13201.36,5530.72 5421.29,12328.5 19513.23,14849.57 12752.82,2281.06 22213.41,12602.51 32140.89,20925.56 7503.6,6291.09 15759.41,11686.03 24533.13,16034.87 10658.13,5282.45 28444.6,8680.27 36539.33,5373.38 7446.98,-3040.9 9850.91,-8516.68 9969.81,-14472.47 313.29,-15858.82 4139.4,-29871.52 15407.3,-40622.87z"/>
    <g>
    </g>
   </g>
   <g style="clip-path:url(#id1)">
    <g>
    </g>
    <g style="clip-path:url(#id2)">
     <image x="53333.2" y="-52261.75" width="111903.62" height="198880.81" xlink:href="Mainfoto_Images\Mainfoto_ImgID1.png"/>
    </g>
    <g style="clip-path:url(#id3)">
    </g>
    <g style="clip-path:url(#id4)">
     <image x="1682.21" y="13602.06" width="97854.55" height="143639.67" xlink:href="Mainfoto_Images\Mainfoto_ImgID2.png"/>
    </g>
    <g style="clip-path:url(#id5)">
    </g>
   </g>
   <g style="clip-path:url(#id6)">
    <path class="fil1" d="M81551.16 -27777.06c47945.68,0 86813.29,36653.26 86813.29,81867.43 0,45214.25 -38867.61,81867.51 -86813.29,81867.51 -47945.68,0 -86813.29,-36653.26 -86813.29,-81867.51 0,-45214.18 38867.61,-81867.43 86813.29,-81867.43z"/>
   </g>
   <g style="clip-path:url(#id7)">
    <image x="254798.13" y="18632.77" width="259103.7" height="145745.82" xlink:href="Mainfoto_Images\Mainfoto_ImgID3.png"/>
   </g>
   <g style="clip-path:url(#id8)">
   </g>
  </g>
  <path class="fil1" d="M81574.24 0c45052.26,0 81574.24,30244.79 81574.24,67553.59 0,37308.8 -36521.98,67553.59 -81574.24,67553.59 -45052.18,0 -81574.24,-30244.79 -81574.24,-67553.59 0,-37308.8 36522.06,-67553.59 81574.24,-67553.59z"/>
  <g>
   <path class="fil2" d="M141568.14 15350.53l2.52 2.22c1174.61,-1313.22 2977.33,-1617.19 4026.62,-678.77 1049.29,938.34 947.82,2763.75 -226.64,4077.13l5.96 5.35 -37.98 29.8c-1812.04,1979.31 -10500.03,8216.68 -13218.01,10349.04 2354.95,-3436.1 7018,-11025.14 9431.64,-13761.61l15.89 -23.15z"/>
   <path class="fil2" d="M146446.75 26615.6l0.15 2.6c1332.71,-296.56 2476.29,345.08 2554.46,1433.19 78.17,1088.11 -938.8,2210.68 -2271.43,2507.39l0.46 6.19 -36.45 1.45c-2031.19,427.68 -10056.92,393.75 -12663.11,499.2 3094.85,-1109.28 9636.73,-3808.84 12395.05,-4442.53l20.86 -7.49z"/>
   <path class="fil2" d="M133069.73 15652.35l-2.22 0.15c129.29,-1198.83 -546.19,-2139.62 -1508.91,-2101.34 -962.72,38.36 -1848.11,1041.19 -1977.7,2240.1l-5.43 0.15 2.29 32.17c-175.82,1824.88 642.55,8865.88 806.15,11163.75 669.45,-2825.42 2396.21,-8832.56 2681.3,-11315.88l4.51 -19.1z"/>
  </g>
 </g>
</svg>
